<svg width="56" height="56" viewBox="0 0 56 56" fill="none" xmlns="http://www.w3.org/2000/svg">
<circle cx="28" cy="28" r="28" fill="#B9D5D9"/>
<path d="M28 18C25.2475 18 23 20.2475 23 23C23 25.7525 25.2475 28 28 28C30.7525 28 33 25.7525 33 23C33 20.2475 30.7525 18 28 18ZM28 19.5C29.9419 19.5 31.5 21.0581 31.5 23C31.5 24.9419 29.9419 26.5 28 26.5C26.0581 26.5 24.5 24.9419 24.5 23C24.5 21.0581 26.0581 19.5 28 19.5ZM21.9893 30C20.8994 30 20 30.8994 20 31.9893V32.75C20 34.5521 21.1396 35.9461 22.6533 36.7812C24.167 37.6164 26.0841 38 28 38C29.9159 38 31.833 37.6164 33.3467 36.7812C34.6373 36.0692 35.6087 34.9313 35.8809 33.5H36.001V31.9893C36.001 30.8994 35.1006 30 34.0107 30H21.9893ZM21.9893 31.5H34.0107C34.2898 31.5 34.501 31.7102 34.501 31.9893V32H34.5V32.75C34.5 33.9479 33.8271 34.8039 32.6221 35.4688C31.417 36.1336 29.7091 36.5 28 36.5C26.2909 36.5 24.583 36.1336 23.3779 35.4688C22.1729 34.8039 21.5 33.9479 21.5 32.75V31.9893C21.5 31.7102 21.7102 31.5 21.9893 31.5Z" fill="white"/>
<path d="M28 18C25.2475 18 23 20.2475 23 23C23 25.7525 25.2475 28 28 28C30.7525 28 33 25.7525 33 23C33 20.2475 30.7525 18 28 18ZM21.9893 30C20.8994 30 20 30.8994 20 31.9893V32.75C20 34.5521 21.1396 35.9461 22.6533 36.7812C24.167 37.6164 26.0841 38 28 38C29.9159 38 31.833 37.6164 33.3467 36.7812C34.6373 36.0692 35.6087 34.9313 35.8809 33.5H36.001V31.9893C36.001 30.8994 35.1006 30 34.0107 30H21.9893Z" fill="white"/>
</svg>
