<svg width="14" height="14" fill="none" xmlns="http://www.w3.org/2000/svg"><path d="M0 .593h13.241V7.74l-.655 1.025.655.91v4.159H0V7.095l.41-.47L0 6.173V.593Z" fill="#016FD0"/><path d="M2.57 9.82V7.74h2.201l.237.308.244-.308h7.989v1.936s-.209.141-.45.143H8.365L8.1 9.492v.327h-.872v-.56s-.12.079-.377.079h-.297v.481H5.233l-.236-.314-.24.314H2.57ZM0 6.174l.496-1.157h.859l.281.648v-.648h1.068l.167.468.163-.468h4.79v.235s.252-.235.665-.235l1.555.005.276.64v-.645h.893l.246.367v-.367h.901v2.078h-.9l-.236-.368v.368H9.912l-.132-.327h-.353l-.13.327h-.89c-.356 0-.583-.23-.583-.23v.23H6.482l-.266-.327v.327H1.228l-.132-.327H.744l-.13.327H0v-.921Z" fill="#fff"/><path fill-rule="evenodd" clip-rule="evenodd" d="m.002 6.83.67-1.557h.507l.67 1.556h-.446l-.123-.311H.562l-.124.311H.002Zm1.137-.65-.22-.545L.7 6.18h.439Z" fill="#016FD0"/><path d="M1.895 6.83V5.272l.619.002.36 1.004.352-1.006h.614v1.556h-.389V5.682L3.04 6.83h-.342l-.413-1.147V6.83h-.39ZM4.106 6.83V5.272h1.27v.348H4.5v.266h.856v.328H4.5v.276h.876v.338h-1.27Z" fill="#016FD0"/><path fill-rule="evenodd" clip-rule="evenodd" d="M5.602 6.83V5.272h.866c.286 0 .544.177.544.505 0 .28-.217.46-.427.478l.512.573H6.62l-.466-.553H5.99v.553H5.6Zm.833-1.21h-.444v.329h.45c.078 0 .179-.06.179-.164 0-.08-.078-.164-.185-.164Z" fill="#016FD0"/><path d="M7.568 6.83H7.17V5.272h.398v1.556ZM8.51 6.83h-.086c-.415 0-.667-.328-.667-.773 0-.456.25-.784.773-.784h.43v.368h-.445c-.213 0-.363.166-.363.42 0 .302.172.428.42.428h.102l-.164.34Z" fill="#016FD0"/><path fill-rule="evenodd" clip-rule="evenodd" d="m8.687 6.83.67-1.557h.507l.669 1.556h-.446l-.122-.311h-.719l-.123.311h-.436Zm1.136-.65-.219-.545-.22.545h.44Z" fill="#016FD0"/><path d="M10.579 6.83V5.272h.494l.632.978v-.978h.39v1.556h-.48l-.647-1.003v1.003h-.39ZM2.836 9.553V7.997h1.27v.348H3.23v.266h.856v.328H3.23v.276h.876v.338h-1.27ZM9.06 9.553V7.997h1.269v.348h-.877v.266h.852v.328h-.852v.276h.877v.338h-1.27ZM4.156 9.553l.618-.769-.633-.787h.49l.377.487.379-.487h.47l-.624.778.62.778h-.49l-.367-.48-.357.48h-.483Z" fill="#016FD0"/><path fill-rule="evenodd" clip-rule="evenodd" d="M5.898 9.553V7.997h.86c.353 0 .559.227.559.523 0 .358-.263.542-.61.542h-.41v.491h-.399ZM6.73 8.35h-.431v.358h.43c.114 0 .193-.075.193-.179 0-.11-.08-.179-.192-.179ZM7.486 9.553V7.997h.866c.287 0 .544.177.544.505 0 .28-.217.46-.427.478l.512.573h-.476L8.04 9h-.164v.553h-.39Zm.834-1.208h-.445v.327h.45c.079 0 .18-.06.18-.163 0-.08-.078-.164-.185-.164Z" fill="#016FD0"/><path d="M10.509 9.553v-.338h.779c.115 0 .165-.062.165-.13 0-.066-.05-.132-.165-.132h-.352c-.306 0-.476-.186-.476-.466 0-.25.155-.49.61-.49h.758l-.164.35h-.655c-.126 0-.164.066-.164.128 0 .065.047.136.143.136h.369c.34 0 .489.193.489.447 0 .272-.165.495-.508.495h-.83ZM11.937 9.553v-.338h.779c.115 0 .165-.062.165-.13 0-.066-.05-.132-.165-.132h-.352c-.306 0-.476-.186-.476-.466 0-.25.156-.49.61-.49h.758l-.164.35h-.655c-.125 0-.164.066-.164.128 0 .065.048.136.143.136h.369c.341 0 .489.193.489.447 0 .272-.165.495-.507.495h-.83Z" fill="#016FD0"/></svg>