<svg width="64" height="64" fill="none" xmlns="http://www.w3.org/2000/svg"><g clip-path="url(#a)" fill="#216E7A"><path opacity=".8" d="M8 29h6v19H8V29Z"/><path d="M56.427 36.815c-.937-.693-2.188-.895-3.435-.55l-15.289 4.227c.188-.464.297-.969.297-1.501A4 4 0 0 0 34 35h-9.377c-.666-1-2.362-4-4.623-4h-4v-1c0-1.654-1.346-3-3-3H9c-1.654 0-3 1.346-3 3v17c0 1.654 1.346 3 3 3h4c1.654 0 3-1.345 3-3v-.752l12.139 8.202A9.046 9.046 0 0 0 33.214 56a9.09 9.09 0 0 0 4.742-1.331l18.173-11.101A3.926 3.926 0 0 0 58 40.235v-.313a3.843 3.843 0 0 0-1.573-3.107ZM14 47c0 .552-.449 1-1 1h-1v-4h-2v4H9c-.551 0-1-.448-1-1V30c0-.552.449-1 1-1h4c.551 0 1 .449 1 1v17Zm42-6.765c0 .66-.35 1.283-.913 1.627l-18.173 11.1a7.093 7.093 0 0 1-7.654-.169L16 43.835V33h4c1.059 0 2.469 2.034 3.088 3.409l.266.591H34c1.103 0 2 .893 2 1.99 0 1.108-.897 2.01-2 2.01H24v2h12l17.524-4.807c.641-.178 1.28-.093 1.71.229.487.361.766.908.766 1.5v.313Z"/><path opacity=".8" d="M38.5 17.233a2.89 2.89 0 1 0 0 5.78 2.89 2.89 0 0 0 0-5.78Z"/><path d="M49.194 10.562c-1.591-1.307-3.67-1.719-6.194-1.22-1.569.343-2.654.84-3.411 1.381l-.511-.28v-1.88c0-.144.017-.334.102-.417.173-.172.785-.166 1.322-.163l2.623.003a4.052 4.052 0 0 0 4.047-4.046V1.047h-5.204c-1.473 0-2.76.794-3.468 1.973a4.044 4.044 0 0 0-3.468-1.973h-5.204V3.94a4.052 4.052 0 0 0 4.047 4.046l2.622-.002c.54-.004 1.15-.01 1.323.162.084.084.102.273.102.418v1.88l-.547.302c-.757-.538-1.837-1.03-3.387-1.37-2.512-.495-4.595-.084-6.188 1.223-3.135 2.578-3.171 7.678-3.171 7.893 0 4.526 3.013 9.199 7.008 10.87.948.396 1.884.593 2.786.593 1.479 0 2.87-.526 4.077-1.561 1.945 1.663 4.358 2.01 6.855.966 4-1.673 7.017-6.352 7.017-10.883 0-.216-.036-5.332-3.178-7.915Zm-7.226-8.359h4.047V3.94a2.894 2.894 0 0 1-2.89 2.89l-2.613-.002c-.514-.002-1.145-.005-1.434.109V6.83c0-.956.778-1.736 1.734-1.736h1.735V3.937h-1.735c-.62 0-1.192.2-1.663.534a2.893 2.893 0 0 1 2.819-2.268Zm-5.2 4.624-.279.001-2.614.001a2.894 2.894 0 0 1-2.89-2.89V2.203h4.047c1.38 0 2.533.974 2.818 2.268a2.864 2.864 0 0 0-1.662-.534h-1.735v1.157h1.735c.956 0 1.734.78 1.734 1.735v.106c-.578-.094-.742-.108-1.154-.108Zm8.141 21.466c-2.217.928-4.349.537-6.003-1.096l-.406-.4-.406.4c-1.658 1.636-3.792 2.027-6.011 1.099-3.532-1.477-6.299-5.784-6.299-9.804 0-.048.032-4.766 2.75-7 .943-.775 2.117-1.163 3.5-1.163.541 0 1.114.06 1.718.178 3.465.76 4.17 2.276 4.17 2.93v.329h1.156v-.407c0-.777.814-2.153 4.158-2.886 2.156-.427 3.91-.095 5.22.98 2.72 2.231 2.76 6.977 2.76 7.024 0 4.026-2.77 8.337-6.307 9.816Z"/></g><defs><clipPath id="a"><path fill="#fff" d="M0 0h64v64H0z"/></clipPath></defs></svg>