<svg width="50" height="38" viewBox="0 0 50 38" fill="none" xmlns="http://www.w3.org/2000/svg">
<path fill-rule="evenodd" clip-rule="evenodd" d="M13.459 26.5342V22.5039H20.5592C20.7073 22.5039 20.8525 22.514 20.9978 22.524C21.0147 22.5252 21.0316 22.5264 21.0486 22.5275L20.0224 24.5191H15.4876V26.5342C15.4876 29.3121 17.7628 31.5721 20.5592 31.5721H21.0664H25.6309V29.5569C25.6309 27.3544 24.1916 25.4983 22.2055 24.8162L21.0842 22.5295C24.7541 22.7985 27.6595 25.845 27.6595 29.5569V31.5721C27.6595 32.6834 26.7497 33.5872 25.6309 33.5872H20.5592C16.645 33.5872 13.459 30.4224 13.459 26.5342ZM38.2921 22.5295C38.2951 22.5245 38.3099 22.5039 38.3099 22.5039L38.3277 22.5275C38.3447 22.5264 38.3616 22.5252 38.3785 22.524C38.5238 22.514 38.669 22.5039 38.8171 22.5039H45.9173V26.5342C45.9173 30.4224 42.7313 33.5872 38.8171 33.5872H33.7454C32.6266 33.5872 31.7168 32.6834 31.7168 31.5721V29.5569C31.7168 25.845 34.6222 22.7985 38.2921 22.5295ZM43.8887 24.5191H39.3539C39.6197 25.2395 39.8314 26.106 39.8314 27.038C39.8314 29.5418 38.3099 31.5721 38.3099 31.5721C38.3099 31.5721 36.7884 29.5418 36.7884 27.038C36.7884 26.2259 36.9547 25.4752 37.1708 24.8162C35.1847 25.4983 33.7454 27.3544 33.7454 29.5569V31.5721H38.3099H38.8171C41.6135 31.5721 43.8887 29.3121 43.8887 26.5342V24.5191Z" fill="#C5E1E6"/>
<path d="M21.0842 22.5295C21.0812 22.5245 21.0664 22.5039 21.0664 22.5039L21.0486 22.5275L20.0224 24.5191C19.7566 25.2395 19.5449 26.106 19.5449 27.038C19.5449 29.5418 21.0664 31.5721 21.0664 31.5721C21.0664 31.5721 22.5879 29.5418 22.5879 27.038C22.5879 26.2259 22.4216 25.4752 22.2055 24.8162L21.0842 22.5295Z" fill="#C5E1E6"/>
<path d="M4.68667 15.1583C3.45167 15.1583 2.49639 14.8417 1.82083 14.2083C1.14528 13.5644 0.781111 12.6883 0.728333 11.58L0.7125 10.8833L0.728333 10.1867C0.781111 9.08889 1.15056 8.21806 1.83667 7.57417C2.52278 6.93028 3.47278 6.60833 4.68667 6.60833C5.90056 6.60833 6.85056 6.93028 7.53667 7.57417C8.22278 8.21806 8.59222 9.08889 8.645 10.1867C8.65556 10.3133 8.66083 10.5456 8.66083 10.8833C8.66083 11.2211 8.65556 11.4533 8.645 11.58C8.59222 12.6883 8.22806 13.5644 7.5525 14.2083C6.87694 14.8417 5.92167 15.1583 4.68667 15.1583ZM4.68667 13.5908C5.24611 13.5908 5.67889 13.4167 5.985 13.0683C6.29111 12.7094 6.46 12.1869 6.49167 11.5008C6.50222 11.3953 6.5075 11.1894 6.5075 10.8833C6.5075 10.5772 6.50222 10.3714 6.49167 10.2658C6.46 9.57972 6.29111 9.0625 5.985 8.71417C5.67889 8.35528 5.24611 8.17583 4.68667 8.17583C4.12722 8.17583 3.69444 8.35528 3.38833 8.71417C3.08222 9.0625 2.91333 9.57972 2.88167 10.2658L2.86583 10.8833L2.88167 11.5008C2.91333 12.1869 3.08222 12.7094 3.38833 13.0683C3.69444 13.4167 4.12722 13.5908 4.68667 13.5908ZM10.7951 15C10.6896 15 10.5998 14.9631 10.526 14.8892C10.4521 14.8153 10.4151 14.7256 10.4151 14.62V7.14667C10.4151 7.04111 10.4521 6.95139 10.526 6.8775C10.5998 6.80361 10.6896 6.76667 10.7951 6.76667H12.0935C12.199 6.76667 12.2887 6.80361 12.3626 6.8775C12.4365 6.95139 12.4735 7.04111 12.4735 7.14667V7.79583C13.0962 7.00417 13.9776 6.60833 15.1176 6.60833C16.0887 6.60833 16.8593 6.93028 17.4293 7.57417C17.9993 8.2075 18.2843 9.07306 18.2843 10.1708V14.62C18.2843 14.7256 18.2473 14.8153 18.1735 14.8892C18.1101 14.9631 18.0204 15 17.9043 15H16.511C16.4054 15 16.3157 14.9631 16.2418 14.8892C16.1679 14.8153 16.131 14.7256 16.131 14.62V10.2658C16.131 9.64306 15.9779 9.16278 15.6718 8.825C15.3762 8.47667 14.9435 8.3025 14.3735 8.3025C13.814 8.3025 13.3707 8.47667 13.0435 8.825C12.7268 9.17333 12.5685 9.65361 12.5685 10.2658V14.62C12.5685 14.7256 12.5315 14.8153 12.4576 14.8892C12.3943 14.9631 12.3046 15 12.1885 15H10.7951ZM20.6913 15C20.5858 15 20.496 14.9631 20.4222 14.8892C20.3483 14.8153 20.3113 14.7256 20.3113 14.62V4.13833C20.3113 4.02222 20.3483 3.9325 20.4222 3.86917C20.496 3.79528 20.5858 3.75833 20.6913 3.75833H22.0055C22.1216 3.75833 22.2113 3.79528 22.2747 3.86917C22.3485 3.9325 22.3855 4.02222 22.3855 4.13833V14.62C22.3855 14.7256 22.3485 14.8153 22.2747 14.8892C22.2113 14.9631 22.1216 15 22.0055 15H20.6913ZM24.8024 5.405C24.6969 5.405 24.6071 5.36806 24.5333 5.29417C24.4594 5.22028 24.4224 5.13056 24.4224 5.025V3.885C24.4224 3.77944 24.4594 3.68972 24.5333 3.61583C24.6071 3.54194 24.6969 3.505 24.8024 3.505H26.2433C26.3488 3.505 26.4385 3.54194 26.5124 3.61583C26.5969 3.68972 26.6391 3.77944 26.6391 3.885V5.025C26.6391 5.13056 26.6021 5.22028 26.5283 5.29417C26.4544 5.36806 26.3594 5.405 26.2433 5.405H24.8024ZM24.8658 15C24.7602 15 24.6705 14.9631 24.5966 14.8892C24.5227 14.8153 24.4858 14.7256 24.4858 14.62V7.14667C24.4858 7.04111 24.5227 6.95139 24.5966 6.8775C24.6705 6.80361 24.7602 6.76667 24.8658 6.76667H26.1799C26.296 6.76667 26.3858 6.80361 26.4491 6.8775C26.523 6.94083 26.5599 7.03056 26.5599 7.14667V14.62C26.5599 14.7256 26.523 14.8153 26.4491 14.8892C26.3858 14.9631 26.296 15 26.1799 15H24.8658ZM29.0406 15C28.935 15 28.8453 14.9631 28.7714 14.8892C28.6975 14.8153 28.6606 14.7256 28.6606 14.62V7.14667C28.6606 7.04111 28.6975 6.95139 28.7714 6.8775C28.8453 6.80361 28.935 6.76667 29.0406 6.76667H30.3389C30.4444 6.76667 30.5342 6.80361 30.6081 6.8775C30.6819 6.95139 30.7189 7.04111 30.7189 7.14667V7.79583C31.3417 7.00417 32.2231 6.60833 33.3631 6.60833C34.3342 6.60833 35.1047 6.93028 35.6747 7.57417C36.2447 8.2075 36.5297 9.07306 36.5297 10.1708V14.62C36.5297 14.7256 36.4928 14.8153 36.4189 14.8892C36.3556 14.9631 36.2658 15 36.1497 15H34.7564C34.6508 15 34.5611 14.9631 34.4872 14.8892C34.4133 14.8153 34.3764 14.7256 34.3764 14.62V10.2658C34.3764 9.64306 34.2233 9.16278 33.9172 8.825C33.6217 8.47667 33.1889 8.3025 32.6189 8.3025C32.0594 8.3025 31.6161 8.47667 31.2889 8.825C30.9722 9.17333 30.8139 9.65361 30.8139 10.2658V14.62C30.8139 14.7256 30.7769 14.8153 30.7031 14.8892C30.6397 14.9631 30.55 15 30.4339 15H29.0406ZM42.0876 15.1583C40.9159 15.1583 39.9818 14.8206 39.2851 14.145C38.599 13.4589 38.2348 12.4983 38.1926 11.2633L38.1768 10.8675L38.1926 10.4717C38.2454 9.26833 38.6148 8.32361 39.3009 7.6375C39.9976 6.95139 40.9265 6.60833 42.0876 6.60833C43.3332 6.60833 44.2937 6.98833 44.9693 7.74833C45.6554 8.50833 45.9984 9.52167 45.9984 10.7883V11.1208C45.9984 11.2264 45.9615 11.3161 45.8876 11.39C45.8137 11.4639 45.7187 11.5008 45.6026 11.5008H40.3459V11.6275C40.367 12.2081 40.5254 12.6989 40.8209 13.1C41.127 13.4906 41.544 13.6858 42.0718 13.6858C42.6945 13.6858 43.1959 13.4431 43.5759 12.9575C43.6709 12.8414 43.7448 12.7675 43.7976 12.7358C43.8609 12.7042 43.9507 12.6883 44.0668 12.6883H45.4284C45.5234 12.6883 45.6026 12.72 45.6659 12.7833C45.7398 12.8361 45.7768 12.9047 45.7768 12.9892C45.7768 13.2425 45.6237 13.5433 45.3176 13.8917C45.022 14.2294 44.5945 14.525 44.0351 14.7783C43.4757 15.0317 42.8265 15.1583 42.0876 15.1583ZM43.8451 10.1708V10.1233C43.8451 9.50056 43.6868 8.99917 43.3701 8.61917C43.064 8.23917 42.6365 8.04917 42.0876 8.04917C41.5387 8.04917 41.1112 8.23917 40.8051 8.61917C40.499 8.99917 40.3459 9.50056 40.3459 10.1233V10.1708H43.8451Z" fill="#0D444D"/>
<path d="M0.9975 34C0.881389 34 0.786389 33.9631 0.7125 33.8892C0.649167 33.8153 0.6175 33.7203 0.6175 33.6042V32.4958C0.6175 32.3164 0.654444 32.1792 0.728333 32.0842C0.802222 31.9786 0.844444 31.9206 0.855 31.91L6.365 24.785H1.15583C1.05028 24.785 0.960556 24.7481 0.886667 24.6742C0.812778 24.6003 0.775833 24.5106 0.775833 24.405V23.3125C0.775833 23.1964 0.8075 23.1014 0.870833 23.0275C0.944722 22.9536 1.03972 22.9167 1.15583 22.9167H8.72417C8.84028 22.9167 8.93528 22.9536 9.00917 23.0275C9.08306 23.1014 9.12 23.1964 9.12 23.3125V24.405C9.12 24.595 9.05139 24.7797 8.91417 24.9592L3.515 32.1158H8.89833C9.01444 32.1158 9.10944 32.1528 9.18333 32.2267C9.25722 32.3006 9.29417 32.3956 9.29417 32.5117V33.62C9.29417 33.7361 9.25722 33.8311 9.18333 33.905C9.10944 33.9683 9.01444 34 8.89833 34H0.9975Z" fill="#0D444D"/>
</svg>
