<svg width="20" height="15" fill="none" xmlns="http://www.w3.org/2000/svg"><path fill="#6C6BBD" d="M7.619 1.997h4.913v8.831H7.619z"/><path d="M7.927 6.413a5.6 5.6 0 0 1 2.145-4.416 5.615 5.615 0 1 0 0 8.83 5.615 5.615 0 0 1-2.145-4.414Z" fill="#D32011"/><path d="M19.157 6.413a5.615 5.615 0 0 1-9.085 4.415 5.615 5.615 0 0 0 0-8.83 5.615 5.615 0 0 1 9.084 4.415Z" fill="#0099DF"/><path fill-rule="evenodd" clip-rule="evenodd" d="M12.462 13.655h.533v-.304h-.528v-.453h-.328v.453h-.304v.3h.304v.681c0 .348.134.553.517.553.14 0 .299-.045.403-.115l-.094-.279a.63.63 0 0 1-.289.085c-.16 0-.214-.1-.214-.249v-.672Zm1.956-.294a.764.764 0 0 0-.228-.04.444.444 0 0 0-.394.215v-.18h-.323v1.489h.323v-.837c0-.243.105-.383.319-.383.065 0 .134.01.204.04l.1-.304Zm-5.575.613c.035-.215.164-.364.398-.364.21 0 .344.13.379.364h-.777Zm.403-.652c.418 0 .702.318.707.781l-.002.066a.965.965 0 0 0-.003.059H8.843c.05.268.239.363.448.363.15 0 .309-.055.433-.154l.16.239a.908.908 0 0 1-.613.209c-.448 0-.766-.309-.766-.782 0-.463.303-.781.741-.781Zm2.131.418a.969.969 0 0 0-.463-.13c-.18 0-.284.065-.284.175 0 .1.115.129.254.144l.155.02c.323.045.522.184.522.448 0 .284-.249.488-.682.488-.244 0-.468-.065-.647-.194l.154-.254a.8.8 0 0 0 .498.154c.22 0 .339-.065.339-.18 0-.084-.085-.129-.264-.154l-.154-.02c-.334-.044-.513-.199-.513-.438 0-.298.244-.477.622-.477.239 0 .453.054.607.154l-.144.264Zm3.818-.075a.45.45 0 0 1 .184-.035.466.466 0 0 1 .334.135c.044.04.074.09.1.149.024.06.034.124.034.194s-.01.134-.035.194a.436.436 0 0 1-.1.15.394.394 0 0 1-.149.1.45.45 0 0 1-.184.034.466.466 0 0 1-.333-.135.394.394 0 0 1-.1-.149.498.498 0 0 1-.035-.194c0-.07.01-.134.035-.194a.523.523 0 0 1 .1-.15.488.488 0 0 1 .149-.099Zm.184-.343a.87.87 0 0 1 .324.06.746.746 0 0 1 .423.412.8.8 0 0 1 .06.314.8.8 0 0 1-.06.314.714.714 0 0 1-.17.249.798.798 0 0 1-.577.224.87.87 0 0 1-.324-.06.747.747 0 0 1-.423-.413.8.8 0 0 1-.06-.314.8.8 0 0 1 .06-.314.747.747 0 0 1 .423-.413c.1-.04.204-.06.324-.06Zm-7.98.303c-.283 0-.452.214-.452.478s.169.478.453.478c.268 0 .448-.204.448-.478s-.18-.478-.448-.478Zm.752.478v-.747h-.323v.18a.569.569 0 0 0-.473-.22c-.418 0-.747.33-.747.782 0 .453.329.782.747.782a.569.569 0 0 0 .473-.22v.18h.323v-.737Zm-1.827-.19v.932h-.328v-.832c0-.253-.105-.393-.329-.393-.214 0-.363.14-.363.399v.826h-.329v-.832c0-.253-.11-.393-.323-.393-.22 0-.364.14-.364.399v.826H3.96v-1.489h.324v.185a.497.497 0 0 1 .438-.22c.229 0 .388.1.492.264a.568.568 0 0 1 .523-.263c.363.005.587.239.587.592Z" fill="#110F0D"/></svg>