<svg width="50" height="50" fill="none" xmlns="http://www.w3.org/2000/svg"><path d="M14 5c-2.91 0-5.39 2.07-5.844 4.875-.011.066-.054.121-.062.188h.031c-.035.152-.074.292-.094.437-.304.21-.597.438-.844.688-1.175 1.187-1.671 2.68-2.03 3.906-.005.008.003.023 0 .031C3.858 19.113 1.534 28.555 1 30.719.375 32.023 0 33.46 0 35c0 5.512 4.488 10 10 10 5.387 0 9.77-4.285 9.969-9.625C21.102 36.211 22.742 37 25 37c2.258 0 3.898-.79 5.031-1.625C30.231 40.715 34.613 45 40 45c5.512 0 10-4.488 10-10a9.865 9.865 0 0 0-.531-3.219c-.164-.656-3.117-12.39-4.407-16.656v-.031c-.406-1.219-.945-2.711-2.124-3.906a5.893 5.893 0 0 0-1-.813c-.02-.105-.036-.203-.063-.313h.031c-.008-.066-.05-.12-.062-.187C41.39 7.07 38.91 5 36 5c-3.324 0-6 2.676-6 6 0 .734.121 1.445.344 2.094-.465.539-.856 1.027-1.125 1.281-.114.105-.121.102-.157.125-1.136-.836-2.507-1.406-3.968-1.406-1.457 0-2.89.523-4 1.406-.04-.023-.043-.02-.157-.125-.293-.273-.734-.809-1.25-1.406.2-.617.313-1.278.313-1.969 0-3.324-2.676-6-6-6Zm0 2c2.277 0 4 1.723 4 4 0 .086-.027.164-.031.25-1.27-1.09-2.903-2.063-5.063-2.063-.969 0-1.836.094-2.594.282C10.864 8.016 12.293 7 14 7Zm22 0c1.691 0 3.094 1.004 3.656 2.438-.699-.16-1.468-.25-2.343-.25-2.243 0-3.977 1.042-5.282 2.187-.011-.129-.031-.25-.031-.375 0-2.277 1.723-4 4-4Zm-23.094 4.188c1.996 0 3.375 1.074 4.531 2.28a1 1 0 0 0 .907.97c.425.496.832.984 1.25 1.374.285.266.574.52 1.031.657.457.136 1.105.035 1.5-.282l.031-.03c.668-.595 1.895-1.063 2.938-1.063 1.043 0 2.14.43 2.968 1.094v-.032h.032c.386.317 1.023.45 1.468.313.457-.14.72-.39 1-.657.422-.398.84-.898 1.282-1.406a1 1 0 0 0 .687-.75c1.207-1.285 2.676-2.469 4.782-2.469 1.316 0 2.253.2 2.968.532a.967.967 0 0 0 .438.25c.031.011.062.023.093.031.27.176.512.383.72.594.788.8 1.234 1.922 1.624 3.094.004.007-.004.023 0 .03.77 2.552 2.051 7.4 3.094 11.47A9.924 9.924 0 0 0 40 25c-4.531 0-8.371 3.043-9.594 7.188a.911.911 0 0 0-.187.218S28.929 35 25 35c-3.93 0-5.219-2.594-5.219-2.594a1.075 1.075 0 0 0-.187-.25C18.364 28.027 14.524 25 10 25a9.945 9.945 0 0 0-6.031 2.031c1.035-4.062 2.289-8.836 3.094-11.312v-.031c.34-1.165.742-2.293 1.53-3.094.79-.801 2-1.406 4.313-1.406ZM25 25c-2.2 0-4 1.8-4 4s1.8 4 4 4 4-1.8 4-4-1.8-4-4-4Zm-15 2c4.43 0 8 3.57 8 8s-3.57 8-8 8-8-3.57-8-8c0-.602.063-1.188.188-1.75a.996.996 0 0 0 .374-.625s.262-1.078.313-1.281A7.992 7.992 0 0 1 10 27Zm15 0c1.117 0 2 .883 2 2s-.883 2-2 2-2-.883-2-2 .883-2 2-2Zm15 0a7.982 7.982 0 0 1 7.531 5.313l.094.343c.027.102.07.196.125.282.176.656.25 1.347.25 2.062 0 4.43-3.57 8-8 8s-8-3.57-8-8 3.57-8 8-8ZM4.906 33.969a1.17 1.17 0 0 0-.125.031A1.002 1.002 0 0 0 4 35c0 3.324 2.676 6 6 6 .36.004.695-.184.879-.496a1.01 1.01 0 0 0 0-1.008c-.184-.312-.52-.5-.879-.496-2.277 0-4-1.723-4-4a1 1 0 0 0-1.094-1.031Zm31 0c-.043.008-.086.02-.125.031A1.002 1.002 0 0 0 35 35c0 3.324 2.676 6 6 6 .36.004.695-.184.879-.496a1.01 1.01 0 0 0 0-1.008c-.184-.312-.52-.5-.879-.496-2.277 0-4-1.723-4-4a1 1 0 0 0-1.094-1.031Z" fill="#216E7A"/><circle opacity=".8" cx="10" cy="35" r="8" fill="#216E7A"/><circle opacity=".8" cx="40" cy="35" r="8" fill="#216E7A"/><path d="M5.982 34.81a1 1 0 0 0-1.964.38l1.964-.38Zm3.9 6.183a1 1 0 0 0 .237-1.986l-.238 1.986Zm-5.864-5.804c.342 1.775.82 3.18 1.796 4.169.997 1.01 2.357 1.43 4.067 1.635l.238-1.986c-1.557-.186-2.363-.53-2.882-1.055-.539-.545-.928-1.444-1.255-3.141l-1.964.378ZM35.982 34.81a1 1 0 1 0-1.964.38l1.964-.38Zm3.9 6.183a1 1 0 0 0 .237-1.986l-.238 1.986Zm-5.864-5.804c.342 1.775.82 3.18 1.796 4.169.997 1.01 2.357 1.43 4.067 1.635l.238-1.986c-1.557-.186-2.363-.53-2.882-1.055-.539-.545-.928-1.444-1.255-3.141l-1.964.378Z" fill="#fff"/></svg>