<svg width="64" height="64" fill="none" xmlns="http://www.w3.org/2000/svg"><path opacity=".8" d="M33.422 33.46a1.933 1.933 0 0 0-2.843 0l-5.228 5.677C23.641 40.995 24.957 44 27.483 44h9.034c2.526 0 3.843-3.005 2.132-4.863l-5.227-5.677ZM41 35a3 3 0 1 0 0-6 3 3 0 0 0 0 6ZM23 35a3 3 0 1 0 0-6 3 3 0 0 0 0 6ZM32 31a3 3 0 1 0 0-6 3 3 0 0 0 0 6Z" fill="#216E7A"/><path d="M45 8.105c-5.8 0-10.922 3.86-13 9.398-2.078-5.538-7.2-9.398-13-9.398-7.72 0-14 6.674-14 14.877 0 16.019 13.418 26.765 21.417 31.745A10.545 10.545 0 0 0 32 56.335c1.931 0 3.861-.536 5.583-1.608C45.582 49.747 59 39.001 59 22.982c0-8.203-6.28-14.877-14-14.877ZM36.526 53.03a8.513 8.513 0 0 1-9.052 0C19.828 48.269 7 38.034 7 22.982c0-7.101 5.383-12.877 12-12.877 5.917 0 11.017 4.741 11.861 11.027l.117.868h2.044l.117-.867c.844-6.286 5.944-11.028 11.861-11.028 6.617 0 12 5.776 12 12.877 0 15.052-12.828 25.287-20.474 30.048Z" fill="#216E7A"/><path d="M46 13v2c3.309 0 6 2.691 6 6h2c0-4.411-3.589-8-8-8Z" fill="#216E7A"/><path d="M46 17v2c1.103 0 2 .897 2 2h2c0-2.206-1.794-4-4-4Z" fill="#216E7A"/></svg>