<svg width="64" height="64" fill="none" xmlns="http://www.w3.org/2000/svg"><path opacity=".8" d="M8 29h6v19H8V29Z" fill="#216E7A"/><path d="M56.427 36.815c-.937-.693-2.188-.895-3.435-.55l-15.289 4.227c.188-.464.297-.969.297-1.501A4 4 0 0 0 34 35h-9.377c-.666-1-2.362-4-4.623-4h-4v-1c0-1.654-1.346-3-3-3H9c-1.654 0-3 1.346-3 3v17c0 1.654 1.346 3 3 3h4c1.654 0 3-1.345 3-3v-.752l12.139 8.202A9.046 9.046 0 0 0 33.214 56a9.09 9.09 0 0 0 4.742-1.331l18.173-11.101A3.926 3.926 0 0 0 58 40.235v-.313a3.843 3.843 0 0 0-1.573-3.107ZM14 47c0 .552-.449 1-1 1h-1v-4h-2v4H9c-.551 0-1-.448-1-1V30c0-.552.449-1 1-1h4c.551 0 1 .449 1 1v17Zm42-6.765c0 .66-.35 1.283-.913 1.627l-18.173 11.1a7.093 7.093 0 0 1-7.654-.169L16 43.835V33h4c1.059 0 2.469 2.034 3.088 3.409l.266.591H34c1.103 0 2 .893 2 1.99 0 1.108-.897 2.01-2 2.01H24v2h12l17.524-4.807c.641-.178 1.28-.093 1.71.229.487.361.766.908.766 1.5v.313ZM39 30c2.631 0 13-6.559 13-15 0-3.859-3.14-7-7-7a7.003 7.003 0 0 0-6 3.397A7.003 7.003 0 0 0 33 8c-3.86 0-7 3.141-7 7 0 8.441 10.369 15 13 15Zm-6-20c2.757 0 5 2 5 5h2c0-3 2.243-5 5-5s5 2.243 5 5c0 7.563-9.679 13-11 13-1.321 0-11-5.437-11-13 0-2.757 2.243-5 5-5Z" fill="#216E7A"/></svg>