<svg width="64" height="64" fill="none" xmlns="http://www.w3.org/2000/svg"><path d="M25 32a2 2 0 1 0 0-4 2 2 0 0 0 0 4ZM39 32a2 2 0 1 0 0-4 2 2 0 0 0 0 4ZM29.5 40c1.38 0 2.5-.672 2.5-1.5S30.88 37 29.5 37s-2.5.672-2.5 1.5 1.12 1.5 2.5 1.5Z" fill="#216E7A"/><path opacity=".8" d="M52 30h-4v-6h4a2 2 0 0 1 2 2v2a2 2 0 0 1-2 2Z" fill="#216E7A"/><path d="M34.5 40c1.38 0 2.5-.672 2.5-1.5S35.88 37 34.5 37s-2.5.672-2.5 1.5 1.12 1.5 2.5 1.5Z" fill="#216E7A"/><path opacity=".8" d="M12 30h4v-6h-4a2 2 0 0 0-2 2v2a2 2 0 0 0 2 2ZM47.99 23.44C47.69 18.18 43.33 14 38 14c-1.66 0-3.16.67-4.24 1.76A5.944 5.944 0 0 0 32 20c0-1.66-.67-3.16-1.76-4.24A5.944 5.944 0 0 0 26 14c-5.33 0-9.69 4.18-9.99 9.44.14-4.2 1.9-7.98 4.67-10.76C23.61 9.76 27.53 7.96 32 8c4.47-.04 8.39 1.76 11.32 4.68 2.77 2.78 4.53 6.56 4.67 10.76Z" fill="#216E7A"/><path d="M53 20h-4.47a16.957 16.957 0 0 0-4.504-8.028C40.805 8.762 36.583 7 32.125 7h-.25c-4.458 0-8.681 1.763-11.903 4.975a16.94 16.94 0 0 0-4.501 8.026H11c-2.757 0-5 2.243-5 5v4c0 2.757 2.243 5 5 5h2.456A11.035 11.035 0 0 0 10 42v5c0 5.514 4.486 10 10 10h24c5.514 0 10-4.486 10-10v-5c0-3.052-1.282-5.943-3.455-8H53c2.757 0 5-2.243 5-5v-4c0-2.757-2.243-5-5-5Zm-31.614-6.611C24.229 10.555 27.949 9 31.875 9h.117L32 8l.008 1c4.008-.029 7.735 1.528 10.604 4.386.383.385.743.787 1.079 1.204A10.927 10.927 0 0 0 38 13a7.003 7.003 0 0 0-6 3.397A7.003 7.003 0 0 0 26 13c-2.082 0-4.03.581-5.691 1.59.335-.417.694-.818 1.077-1.201ZM11 32c-1.654 0-3-1.346-3-3v-4c0-1.654 1.346-3 3-3h4v10h-4Zm41 10v5c0 4.411-3.589 8-8 8H20c-4.411 0-8-3.589-8-8v-5a9.037 9.037 0 0 1 4.501-7.795l.354-.205H17V24c0-4.962 4.038-9 9-9 2.757 0 5 2.243 5 5v1h2v-1c0-2.757 2.243-5 5-5 4.963 0 9 4.038 9 9v10h.145l.354.205A9.037 9.037 0 0 1 52 42Zm4-13c0 1.654-1.346 3-3 3h-4V22h4c1.654 0 3 1.346 3 3v4Zm-31 7c3.309 0 6-2.691 6-6s-2.691-6-6-6-6 2.691-6 6 2.691 6 6 6Zm0-10c2.206 0 4 1.794 4 4s-1.794 4-4 4-4-1.794-4-4 1.794-4 4-4Zm20 17h2v3c0 2.206-1.794 4-4 4H21c-2.206 0-4-1.794-4-4v-3h2v3c0 1.103.897 2 2 2h22c1.103 0 2-.897 2-2v-3Zm-6-7c3.309 0 6-2.691 6-6s-2.691-6-6-6-6 2.691-6 6 2.691 6 6 6Zm0-10c2.206 0 4 1.794 4 4s-1.794 4-4 4-4-1.794-4-4 1.794-4 4-4Z" fill="#216E7A"/></svg>