<svg width="34" height="12" fill="none" xmlns="http://www.w3.org/2000/svg"><path d="M14.75 11.363h-2.688L13.745.966h2.688l-1.681 10.397ZM24.497 1.22a6.625 6.625 0 0 0-2.412-.442c-2.655 0-4.524 1.416-4.536 3.44-.022 1.493 1.339 2.322 2.357 2.82 1.04.509 1.393.841 1.393 1.295-.01.696-.84 1.017-1.614 1.017-1.074 0-1.649-.165-2.523-.553l-.354-.166-.376 2.334c.63.287 1.792.542 2.998.553 2.821 0 4.658-1.394 4.68-3.55.01-1.184-.708-2.09-2.257-2.832-.94-.476-1.516-.796-1.516-1.283.01-.443.487-.896 1.548-.896a4.568 4.568 0 0 1 2.003.398l.243.11.366-2.245Z" fill="#00579F"/><path fill-rule="evenodd" clip-rule="evenodd" d="M29.308.966h2.08l2.169 10.397h-2.49s-.243-1.194-.32-1.56h-3.452l-.564 1.56h-2.82l3.992-9.534c.277-.675.764-.863 1.405-.863Zm-.166 3.805s-.851 2.312-1.073 2.91h2.235c-.11-.52-.62-3.01-.62-3.01l-.188-.895c-.079.23-.193.548-.27.761l-.084.234Z" fill="#00579F"/><path d="m9.817.966-2.632 7.09-.288-1.438C6.41 4.96 4.884 3.156 3.18 2.26l2.412 9.092h2.843L12.66.966H9.817Z" fill="#00579F"/><path d="M4.74.966H.414l-.044.21C3.744 2.04 5.98 4.12 6.897 6.62l-.94-4.779C5.801 1.176 5.325.988 4.74.966Z" fill="#FAA61A"/></svg>