<svg width="108" height="84" fill="none" xmlns="http://www.w3.org/2000/svg"><path fill-rule="evenodd" clip-rule="evenodd" d="M29.613 58.384v-8.868h15.623c.326 0 .645.022.965.044l.111.008-2.258 4.382h-9.977v4.434c0 6.112 5.006 11.085 11.159 11.085H56.395v-4.434c0-4.846-3.167-8.93-7.537-10.431l-2.467-5.032c8.075.592 14.468 7.296 14.468 15.463v4.434c0 2.446-2.002 4.434-4.464 4.434h-11.16c-8.612 0-15.622-6.963-15.622-15.519Zm54.641-8.812.04-.056.038.052.112-.008c.32-.022.64-.044.965-.044h15.623v8.868c0 8.556-7.01 15.52-15.623 15.52H74.25c-2.46 0-4.463-1.99-4.463-4.435v-4.434c0-8.167 6.393-14.87 14.468-15.463Zm12.314 4.378h-9.977c.584 1.585 1.05 3.492 1.05 5.543 0 5.509-3.348 9.976-3.348 9.976s-3.348-4.467-3.348-9.976c0-1.787.366-3.44.842-4.889-4.37 1.5-7.537 5.585-7.537 10.431v4.434H85.409c6.153 0 11.16-4.973 11.16-11.085V53.95Z" fill="#C5E1E6"/><path d="M46.39 49.572a1.821 1.821 0 0 0-.038-.056l-.04.052-2.258 4.382c-.584 1.585-1.05 3.492-1.05 5.543 0 5.509 3.348 9.976 3.348 9.976s3.348-4.467 3.348-9.976c0-1.787-.366-3.44-.842-4.889l-2.467-5.032Z" fill="#C5E1E6"/><path d="M10.312 32.348c-2.717 0-4.82-.696-6.306-2.09-1.486-1.417-2.287-3.345-2.403-5.783l-.035-1.533.035-1.533c.116-2.415.929-4.332 2.438-5.748 1.51-1.417 3.6-2.125 6.271-2.125s4.761.708 6.271 2.125c1.51 1.416 2.323 3.333 2.439 5.748.023.279.035.79.035 1.533 0 .743-.012 1.254-.035 1.533-.116 2.438-.917 4.366-2.404 5.783-1.486 1.394-3.588 2.09-6.306 2.09Zm0-3.449c1.231 0 2.184-.383 2.857-1.15.674-.789 1.045-1.939 1.115-3.448.023-.233.035-.685.035-1.36 0-.673-.012-1.125-.035-1.358-.07-1.51-.441-2.647-1.115-3.414-.674-.79-1.626-1.184-2.857-1.184-1.23 0-2.183.394-2.857 1.184-.673.767-1.045 1.904-1.114 3.414l-.035 1.359.035 1.359c.07 1.51.44 2.659 1.114 3.449.674.766 1.626 1.15 2.857 1.15ZM23.752 32a.806.806 0 0 1-.591-.244.806.806 0 0 1-.244-.592V14.72c0-.232.081-.43.244-.592a.806.806 0 0 1 .592-.244h2.857c.232 0 .43.081.592.244.162.162.244.36.244.592v1.428c1.37-1.742 3.31-2.612 5.818-2.612 2.137 0 3.832.708 5.086 2.125 1.255 1.393 1.882 3.298 1.882 5.713v9.79c0 .232-.082.43-.244.592-.14.163-.337.244-.593.244H36.33a.806.806 0 0 1-.593-.244.807.807 0 0 1-.243-.592v-9.58c0-1.371-.337-2.428-1.01-3.171-.651-.767-1.603-1.15-2.858-1.15-1.23 0-2.206.383-2.926 1.15-.697.766-1.045 1.823-1.045 3.17v9.58c0 .233-.081.43-.244.593-.14.163-.337.244-.592.244h-3.066Zm21.776 0a.806.806 0 0 1-.592-.244.806.806 0 0 1-.244-.592V8.1c0-.256.081-.453.244-.593a.806.806 0 0 1 .592-.243h2.892c.255 0 .453.08.592.243.162.14.244.337.244.593v23.063c0 .232-.082.43-.244.592-.14.163-.337.244-.593.244h-2.891Zm9.046-21.112a.806.806 0 0 1-.593-.244.806.806 0 0 1-.243-.592V7.543c0-.232.08-.43.243-.592a.806.806 0 0 1 .593-.244h3.17c.232 0 .43.081.592.244.186.163.279.36.279.592v2.509c0 .232-.081.43-.244.592a.849.849 0 0 1-.627.244h-3.17ZM54.714 32a.806.806 0 0 1-.593-.244.807.807 0 0 1-.244-.592V14.72c0-.232.081-.43.244-.592a.807.807 0 0 1 .592-.244h2.892c.255 0 .453.081.592.244.163.14.244.336.244.592v16.444c0 .232-.081.43-.244.592-.14.163-.337.244-.592.244h-2.892Zm9.185 0a.806.806 0 0 1-.592-.244.807.807 0 0 1-.244-.592V14.72c0-.232.081-.43.244-.592a.807.807 0 0 1 .592-.244h2.857c.232 0 .43.081.592.244.163.162.244.36.244.592v1.428c1.37-1.742 3.31-2.612 5.818-2.612 2.137 0 3.832.708 5.087 2.125 1.254 1.393 1.88 3.298 1.88 5.713v9.79c0 .232-.08.43-.243.592-.14.163-.337.244-.592.244h-3.066a.806.806 0 0 1-.592-.244.806.806 0 0 1-.244-.592v-9.58c0-1.371-.337-2.428-1.01-3.171-.65-.767-1.603-1.15-2.857-1.15-1.231 0-2.207.383-2.927 1.15-.697.766-1.045 1.823-1.045 3.17v9.58c0 .233-.081.43-.244.593-.14.163-.337.244-.592.244h-3.066Zm28.708.348c-2.578 0-4.633-.743-6.166-2.23-1.51-1.509-2.311-3.622-2.404-6.34l-.035-.87.035-.872c.116-2.648.929-4.726 2.438-6.236 1.533-1.51 3.577-2.264 6.132-2.264 2.74 0 4.854.836 6.34 2.508 1.51 1.672 2.265 3.902 2.265 6.689v.732c0 .232-.081.43-.244.592a.847.847 0 0 1-.627.244H88.775v.278c.046 1.278.395 2.358 1.045 3.24.674.86 1.59 1.29 2.752 1.29 1.37 0 2.474-.535 3.31-1.603.209-.256.371-.418.488-.488.139-.07.336-.105.592-.105h2.996a.71.71 0 0 1 .523.21.534.534 0 0 1 .243.453c0 .557-.336 1.219-1.01 1.985-.65.744-1.59 1.394-2.822 1.951-1.23.558-2.66.836-4.285.836Zm3.867-10.974v-.104c0-1.37-.348-2.474-1.045-3.31-.674-.836-1.614-1.254-2.822-1.254s-2.148.418-2.822 1.254c-.673.836-1.01 1.94-1.01 3.31v.104h7.7ZM2.195 73.806a.849.849 0 0 1-.627-.243c-.14-.163-.21-.372-.21-.627v-2.44c0-.394.082-.696.245-.905a6.18 6.18 0 0 1 .278-.383L14.005 53.53H2.543a.806.806 0 0 1-.592-.244.806.806 0 0 1-.244-.592V50.29c0-.255.07-.464.21-.627a.849.849 0 0 1 .626-.244h16.653c.256 0 .465.082.627.244a.849.849 0 0 1 .244.627v2.404c0 .418-.15.825-.453 1.22L7.734 69.66H19.58c.256 0 .465.08.627.243a.85.85 0 0 1 .244.628v2.438a.85.85 0 0 1-.244.627c-.162.14-.371.21-.627.21H2.195Z" fill="#0D444D"/></svg>